<svg width="303" height="274" viewBox="0 0 303 274" fill="none" xmlns="http://www.w3.org/2000/svg">
<path d="M257.441 61.6993C237.352 43.0673 209.616 30.6332 181.643 24.8573C177.603 24.017 173.534 23.2863 169.438 22.6653C107.396 13.1903 69.466 63.02 58.461 84.5454C47.456 106.071 18.5317 152.689 18.9498 180.363C19.3679 208.037 83.9251 256.535 150.573 258.07C217.221 259.604 269.628 226.609 280.942 175.053C285.717 153.319 290.638 130.298 285.505 108.23C281.263 89.9542 271.125 74.391 257.441 61.6993Z" fill="#F49225"/>
<path opacity="0.7" d="M257.441 61.6993C237.352 43.0673 209.616 30.6332 181.643 24.8573C177.603 24.017 173.534 23.2863 169.438 22.6653C107.396 13.1903 69.466 63.02 58.461 84.5454C47.456 106.071 18.5317 152.689 18.9498 180.363C19.3679 208.037 83.9251 256.535 150.573 258.07C217.221 259.604 269.628 226.609 280.942 175.053C285.717 153.319 290.638 130.298 285.505 108.23C281.263 89.9542 271.125 74.391 257.441 61.6993Z" fill="white"/>
<path d="M18.1074 239.235H293.104" stroke="#263238" stroke-miterlimit="10"/>
<g opacity="0.15">
<path d="M38.4991 173.716C41.9109 173.815 48.9466 171.113 48.9526 171.113C48.9587 171.113 45.5712 167.458 45.3166 167.277C42.4624 164.893 35.3904 161.797 31.5968 163.731C28.8637 165.129 28.4092 168.318 30.1424 170.543C31.8756 172.768 35.5964 173.606 38.4991 173.716Z" fill="black"/>
<path d="M49.1403 191.405C52.3278 190.72 57.9333 186.775 58.3757 186.473C60.8644 189.372 63.5629 192.118 66.4537 194.693C68.1323 196.206 69.8715 197.68 71.635 199.138C70.7199 198.59 69.8958 198.091 69.7746 198.042C66.3204 196.425 58.5999 195.126 55.5093 197.899C53.2792 199.894 53.7701 203.083 56.1153 204.815C58.4605 206.547 62.2783 206.514 65.1023 205.911C67.9263 205.308 72.8167 202.015 74.0893 201.132L76.1376 202.776C79.4281 205.418 82.7187 208.043 85.8639 210.706C86.9728 211.649 88.0273 212.608 89.0878 213.567C88.2757 213.073 87.5849 212.662 87.4698 212.608C84.0216 210.964 76.3012 209.692 73.2045 212.465C70.9744 214.46 71.4714 217.649 73.8105 219.381C76.1497 221.113 79.9675 221.08 82.7914 220.477C85.6154 219.874 90.0634 216.898 91.5542 215.857C92.6086 216.866 93.6631 217.879 94.6266 218.899C95.275 219.611 95.9477 220.258 96.5476 221.003L98.3656 223.168C99.4686 224.581 100.62 226.034 101.656 227.436C102.383 228.406 103.062 229.349 103.741 230.292C102.65 229.343 100.475 227.552 100.268 227.398C97.1294 225.327 89.718 223.014 86.1911 225.305C83.658 226.949 83.6095 230.193 85.6154 232.22C87.6213 234.248 91.4148 234.747 94.3115 234.528C97.4991 234.292 103.468 231.311 104.214 230.933C105.341 232.494 106.419 234.023 107.407 235.487C108.304 236.791 109.128 238.035 109.91 239.229L112.443 238.32C111.558 237.021 110.625 235.667 109.589 234.237C108.456 232.648 107.207 230.949 105.904 229.25C107.497 227.884 108.999 226.433 110.401 224.905C113.364 226.187 119.715 226.653 120.533 226.708C120.533 228.571 120.485 230.385 120.424 232.1C120.382 233.278 120.333 234.407 120.279 235.498L122.963 234.533C122.963 233.755 122.993 232.966 123 232.144C123 230.253 123 228.226 123 226.149C123.824 226.017 130.556 224.921 133.199 223.283C135.592 221.798 138.186 219.304 138.331 216.526C138.477 213.747 136.186 211.336 133.053 211.495C128.702 211.709 124.569 217.753 123.599 221.156C123.539 221.359 123.175 223.6 122.993 224.992C122.993 224.143 122.993 223.321 122.927 222.444C122.878 220.718 122.769 218.992 122.66 217.14C122.569 216.241 122.484 215.342 122.394 214.427C122.303 213.512 122.127 212.569 122 211.632C121.648 209.44 121.175 207.286 120.648 205.094C122.321 205.051 128.266 204.815 130.89 203.67C133.514 202.524 136.489 200.42 137.095 197.691C137.701 194.962 135.847 192.271 132.72 191.997C128.387 191.614 123.303 197.028 121.757 200.256C121.66 200.453 120.842 202.881 120.418 204.223C120.091 202.908 119.77 201.598 119.388 200.278C118.285 196.474 117.043 192.649 115.818 188.835C115.443 187.663 115.085 186.495 114.722 185.328C115.328 185.328 122.387 185.169 125.333 183.887C127.951 182.747 130.932 180.637 131.538 177.914C132.144 175.19 130.29 172.494 127.163 172.22C122.83 171.836 117.746 177.245 116.2 180.473C116.085 180.714 114.909 184.21 114.655 185.114C113.855 182.539 113.085 179.963 112.443 177.399C111.551 173.94 110.909 170.433 110.522 166.899C110.795 166.899 118.176 166.778 121.194 165.463C123.806 164.323 126.793 162.213 127.393 159.484C127.993 156.755 126.145 154.065 123.024 153.791C118.691 153.407 113.607 158.821 112.061 162.044C111.94 162.301 110.674 166.06 110.498 166.756C110.498 166.554 110.431 166.34 110.413 166.137C110.133 162.584 110.202 159.015 110.619 155.473C110.825 153.511 111.14 151.637 111.492 149.845C112.867 149.949 119.17 150.366 122.024 149.456C124.763 148.579 127.987 146.782 128.914 144.129C129.841 141.477 128.308 138.617 125.278 138.036C121.036 137.225 115.309 142.096 113.382 145.16C113.273 145.324 112.419 147.116 111.813 148.448C111.982 147.637 112.146 146.804 112.328 146.02C113.007 143.105 113.825 140.474 114.57 138.151C115.006 136.83 115.431 135.646 115.837 134.545C117.249 133.997 122.903 131.805 124.927 129.827C126.951 127.848 128.854 124.971 128.332 122.231C127.811 119.491 124.999 117.584 121.981 118.341C117.788 119.398 115.2 126.106 115.049 129.618C115.049 129.92 115.425 134.693 115.497 134.666L115.588 134.633C115.17 135.69 114.734 136.825 114.291 138.074C113.485 140.392 112.601 143.006 111.867 145.921C111.02 149.052 110.377 152.225 109.94 155.424C109.432 159.003 109.276 162.615 109.474 166.219C109.474 166.258 109.474 166.302 109.474 166.345C109.025 165.249 107.656 162.29 107.516 162.071C105.626 158.997 99.9776 154.065 95.7053 154.832C92.6268 155.38 91.0936 158.29 91.9784 160.893C92.8632 163.496 96.075 165.386 98.802 166.285C101.88 167.299 108.959 166.806 109.522 166.767C109.827 170.429 110.4 174.068 111.237 177.662C111.716 179.76 112.267 181.859 112.849 183.953C112.425 183.032 112.037 182.21 111.97 182.1C110.08 179.026 104.432 174.1 100.159 174.867C97.0809 175.415 95.5477 178.325 96.4325 180.895C97.3173 183.465 100.529 185.388 103.256 186.287C105.983 187.186 112.073 186.89 113.667 186.791C113.903 187.591 114.122 188.397 114.358 189.197C115.491 193.033 116.637 196.869 117.636 200.667C117.988 202.004 118.285 203.33 118.582 204.656C118.206 203.84 117.879 203.155 117.818 203.056C115.928 199.982 110.274 195.05 106.007 195.817C102.929 196.365 101.396 199.275 102.274 201.878C103.153 204.481 106.377 206.366 109.104 207.27C111.831 208.174 117.327 207.9 119.23 207.785C119.491 209.155 119.751 210.525 119.933 211.862C120.036 212.772 120.206 213.649 120.254 214.569C120.303 215.49 120.388 216.389 120.454 217.309C120.515 219.036 120.582 220.822 120.594 222.51C120.594 223.683 120.594 224.801 120.594 225.929C120.26 224.598 119.545 222 119.461 221.787C118.152 218.93 116.055 216.424 113.37 214.509C113.236 214.185 113.072 213.871 112.879 213.572C111.34 211.238 107.928 210.317 105.407 212.01C101.917 214.356 102.165 221.458 103.42 224.784C103.492 224.981 104.559 227.031 105.238 228.313C104.704 227.617 104.195 226.932 103.632 226.22C102.535 224.806 101.39 223.42 100.172 221.929L98.2929 219.803C97.6869 219.079 96.9415 218.383 96.2628 217.666C94.6448 216.022 92.9238 214.449 91.1482 212.893C92.5177 212.016 97.3233 208.854 98.8201 206.591C100.317 204.327 101.505 201.083 100.347 198.508C99.1898 195.932 95.9962 194.611 93.2268 195.937C89.3787 197.784 88.4394 204.831 89.1181 208.295C89.1605 208.509 89.9544 210.947 90.421 212.273C89.3484 211.347 88.2757 210.41 87.1546 209.5C83.9186 206.875 80.5492 204.305 77.1981 201.735C76.1739 200.946 75.1619 200.146 74.1681 199.357C74.6589 199.05 80.4705 195.4 82.143 192.863C83.6277 190.605 84.8276 187.383 83.6701 184.786C82.5127 182.188 79.3191 180.884 76.5496 182.215C72.7015 184.057 71.7622 191.11 72.441 194.567C72.4894 194.83 73.653 198.332 73.9863 199.209C71.7441 197.461 69.5322 195.702 67.4293 193.882C64.5774 191.442 61.9033 188.837 59.4241 186.084C59.6544 185.942 65.7325 182.161 67.4475 179.558C68.9322 177.305 70.1321 174.078 68.9746 171.48C67.8172 168.883 64.6236 167.584 61.8541 168.91C58.006 170.751 57.0667 177.804 57.7455 181.267C57.8 181.536 59.0362 185.306 59.315 185.975C59.1756 185.81 59.0059 185.662 58.8666 185.498C56.4639 182.675 54.3446 179.664 52.5339 176.5C51.5097 174.763 50.6371 173.053 49.825 171.371C51.037 170.773 56.5456 167.978 58.3757 165.792C60.127 163.699 61.7148 160.591 60.8785 157.917C60.0422 155.243 57.0243 153.61 54.1095 154.629C50.0614 156.081 48.2737 162.997 48.5282 166.504C48.5282 166.696 48.916 168.62 49.213 170.017C48.8615 169.255 48.4858 168.472 48.1646 167.732C46.9526 164.964 46.0254 162.361 45.2316 160.06C44.7892 158.739 44.4195 157.539 44.0923 156.416C44.9407 155.265 48.3343 150.596 48.8009 147.944C49.2675 145.291 49.116 141.916 46.9829 139.91C44.8498 137.904 41.3713 137.718 39.317 139.833C36.4627 142.809 38.3959 149.697 40.4078 152.7C40.5835 152.958 43.8256 156.739 43.8681 156.679L43.9165 156.613C44.2135 157.709 44.5225 158.865 44.9346 160.131C45.68 162.46 46.5405 165.09 47.6919 167.891C48.894 170.923 50.2923 173.89 51.8794 176.774C53.6354 180.014 55.7081 183.106 58.0727 186.013C58.0727 186.046 58.1394 186.079 58.1636 186.112C57.1334 185.438 54.1701 183.64 53.9216 183.525C50.4735 181.881 42.753 180.61 39.6564 183.383C37.4263 185.377 37.9232 188.561 40.2624 190.293C42.6015 192.025 46.3163 192.019 49.1403 191.405Z" fill="black"/>
<path d="M110.941 149.242C111.019 149.242 110.335 144.508 110.274 144.217C109.347 140.803 105.341 134.693 100.996 134.413C97.8691 134.216 95.542 136.649 95.6329 139.345C95.7238 142.042 98.2691 144.656 100.639 146.179C103.42 147.987 110.934 149.242 110.941 149.242Z" fill="black"/>
</g>
<g opacity="0.15">
<path d="M282.093 154.936C278.948 156.131 271.312 155.868 271.306 155.868C271.3 155.868 273.021 151.363 273.173 151.095C274.906 147.944 280.293 142.781 284.602 143.368C287.705 143.79 289.383 146.628 288.638 149.264C287.892 151.9 284.771 153.922 282.093 154.936Z" fill="black"/>
<path d="M194.587 159.134C197.617 159.068 203.337 156.651 204.586 156.109C205.622 157.682 206.652 159.326 207.616 161.09C209.399 164.261 210.865 167.569 211.997 170.976C212.064 171.173 212.1 171.382 212.161 171.584C211.724 170.987 209.064 167.88 208.852 167.683C206.137 165.162 199.259 161.737 195.356 163.49C192.55 164.751 191.908 167.918 193.538 170.22C195.168 172.521 198.792 173.584 201.683 173.809C205.016 174.067 211.985 171.809 212.221 171.721C213.248 175.142 214.028 178.62 214.554 182.133C214.96 184.736 215.251 187.389 215.518 190.052C214.912 189.29 212.451 186.402 212.252 186.216C209.537 183.695 202.659 180.27 198.756 182.024C195.944 183.284 195.308 186.452 196.908 188.753C198.507 191.055 202.162 192.118 205.058 192.342C208.313 192.595 214.979 190.457 215.536 190.277C215.657 191.482 215.784 192.693 215.894 193.904C216.251 197.866 216.59 201.839 217.063 205.752C217.221 207.106 217.439 208.432 217.669 209.769C216.748 208.673 215.027 206.645 214.857 206.481C212.142 203.966 205.264 200.541 201.362 202.289C198.556 203.549 197.914 206.717 199.544 209.024C201.174 211.331 204.798 212.388 207.688 212.613C210.579 212.838 216.245 211.15 217.827 210.651C218.19 212.843 218.608 215.035 219.13 217.194C219.378 218.115 219.566 219.068 219.863 219.934C220.16 220.8 220.408 221.688 220.681 222.554C221.287 224.324 221.893 225.968 222.499 227.601C222.814 228.428 223.105 229.201 223.444 230.001C222.699 228.741 221.475 226.768 221.342 226.598C219.081 223.737 212.858 219.408 208.706 220.603C205.719 221.469 204.555 224.51 205.755 227.004C206.955 229.497 210.385 231.053 213.209 231.672C216.318 232.352 223.044 231.212 223.862 231.07C224.644 233.026 225.426 234.906 226.196 236.687C226.523 237.448 226.85 238.183 227.171 238.879L230.056 238.923C229.577 237.92 229.086 236.878 228.583 235.788C227.856 234.21 227.105 232.527 226.359 230.785C227.105 230.472 232.856 227.995 235.122 225.853C237.036 226.827 239.011 227.699 241.037 228.467C240.491 230.489 239.988 232.462 239.552 234.314C239.158 235.958 238.806 237.547 238.485 239.043H239.552H241.188C241.449 237.679 241.733 236.259 242.049 234.763C242.406 233.075 242.806 231.3 243.261 229.475C244.103 229.59 250.86 230.456 253.926 229.656C256.72 228.927 260.047 227.294 261.15 224.724C262.253 222.154 260.919 219.189 257.889 218.444C253.684 217.414 247.672 221.984 245.557 224.932C245.418 225.118 244.091 227.513 243.442 228.768C243.715 227.672 243.976 226.576 244.279 225.431C244.697 223.787 245.194 222.061 245.672 220.384L246.521 217.775C246.794 216.882 247.169 216.065 247.49 215.194C247.993 213.928 248.581 212.64 249.169 211.358C250.987 211.846 256.386 213.188 259.174 212.86C261.962 212.531 265.616 211.369 267.137 208.952C268.658 206.536 267.84 203.472 264.967 202.3C260.986 200.705 254.284 204.399 251.69 207.023C251.605 207.106 251.126 207.714 250.557 208.437C251.163 207.199 251.769 205.96 252.447 204.727C254.338 201.226 256.386 197.713 258.423 194.184C258.847 193.449 259.259 192.71 259.677 191.992C261.216 192.408 267.04 193.91 269.979 193.565C272.918 193.219 276.427 192.069 277.942 189.657C279.457 187.246 278.645 184.177 275.772 183.005C271.797 181.41 265.089 185.103 262.495 187.723C262.404 187.822 261.828 188.545 261.192 189.367C262.271 187.432 263.313 185.498 264.283 183.547C265.976 180.207 267.418 176.767 268.597 173.25C269.137 173.404 275.93 175.289 279.178 174.894C282.057 174.554 285.62 173.404 287.141 170.987C288.662 168.57 287.838 165.507 284.972 164.334C280.99 162.74 274.282 166.433 271.694 169.058C271.512 169.244 269.452 171.88 268.749 172.839L268.791 172.719C269.833 169.247 270.532 165.698 270.882 162.115C271.23 158.908 271.37 155.686 271.3 152.465C271.3 149.472 271.046 146.743 270.821 144.327C270.688 143.017 270.543 141.822 270.391 140.71L270.464 140.759C270.531 140.798 272.07 136.222 272.13 135.926C272.827 132.463 271.93 125.41 268.094 123.547C265.331 122.209 262.107 123.547 260.956 126.084C259.804 128.621 260.956 131.904 262.44 134.167C263.925 136.43 268.931 139.773 270.179 140.573C270.306 141.735 270.434 142.973 270.543 144.343C270.706 146.76 270.864 149.489 270.821 152.465C270.821 153.259 270.767 154.109 270.737 154.942C270.464 153.539 270.064 151.615 269.997 151.434C268.858 148.075 264.464 142.184 260.113 142.118C256.974 142.08 254.805 144.634 255.071 147.346C255.338 150.059 258.047 152.508 260.525 153.922C263.089 155.374 269.337 156.218 270.706 156.388C270.615 158.219 270.47 160.098 270.191 162.049C269.743 165.59 268.946 169.087 267.81 172.499C267.743 172.691 267.646 172.889 267.579 173.086C267.579 172.373 267.252 168.45 267.198 168.181C266.47 164.729 262.822 158.438 258.501 157.956C255.387 157.605 252.92 159.923 252.854 162.646C252.787 165.37 255.181 168.072 257.459 169.705C260.083 171.584 267.252 173.163 267.525 173.223C266.288 176.594 264.81 179.889 263.101 183.087C261.853 185.46 260.477 187.816 259.071 190.172C259.071 189.241 258.744 185.602 258.689 185.339C257.962 181.887 254.314 175.596 249.993 175.113C246.878 174.763 244.418 177.086 244.345 179.804C244.273 182.522 246.678 185.235 248.957 186.863C251.514 188.698 258.38 190.238 258.956 190.37C258.32 191.438 257.689 192.507 257.035 193.57C254.92 197.055 252.793 200.535 250.787 204.031C250.096 205.242 249.466 206.464 248.824 207.676C248.739 206.284 248.521 203.752 248.478 203.538C247.751 200.086 244.103 193.795 239.782 193.312C236.667 192.962 234.201 195.28 234.134 198.003C234.068 200.727 236.461 203.434 238.74 205.062C241.018 206.689 246.769 208.108 248.387 208.487C247.345 210.514 246.357 212.547 245.485 214.597C245.133 215.485 244.709 216.372 244.424 217.244L243.509 219.83C242.951 221.622 242.43 223.283 241.958 224.959C241.715 225.803 241.509 226.603 241.279 227.431C241.424 226.012 241.612 223.754 241.606 223.546C241.467 220.033 238.916 213.314 234.722 212.246C231.692 211.473 228.88 213.43 228.359 216.109C228.292 216.449 228.262 216.794 228.268 217.14C226.509 219.795 225.532 222.814 225.432 225.908C225.432 226.132 225.79 228.79 226.002 230.144C225.553 229.091 225.105 228.05 224.662 226.943C224.002 225.365 223.372 223.655 222.741 222.039C222.45 221.176 222.158 220.311 221.863 219.441C221.548 218.559 221.36 217.688 221.093 216.8C220.742 215.496 220.451 214.131 220.154 212.766C221.972 212.262 227.292 210.69 229.413 209.029C231.534 207.369 233.88 204.568 233.655 201.796C233.431 199.023 230.886 196.864 227.789 197.329C223.499 197.987 220.154 204.409 219.596 207.889C219.596 208.004 219.542 208.75 219.511 209.632C219.269 208.3 219.021 206.963 218.827 205.604C218.269 201.735 217.833 197.784 217.378 193.828C217.281 193 217.178 192.184 217.075 191.356C218.615 190.934 224.384 189.279 226.614 187.52C228.844 185.761 231.074 183.059 230.856 180.287C230.638 177.514 228.08 175.355 224.99 175.82C220.693 176.478 217.354 182.906 216.79 186.386C216.79 186.506 216.736 187.4 216.7 188.397C216.421 186.249 216.094 184.112 215.73 182.002C215.103 178.373 214.208 174.787 213.051 171.266C213.591 171.124 220.402 169.305 222.881 167.365C225.074 165.649 227.341 162.909 227.123 160.131C226.905 157.353 224.347 155.199 221.257 155.67C216.96 156.322 213.621 162.751 213.057 166.23C213.021 166.477 212.906 169.705 212.912 170.855L212.876 170.729C211.646 167.296 210.078 163.969 208.191 160.789C206.524 157.942 204.677 155.185 202.659 152.53C200.81 150.053 198.956 147.889 197.289 145.954C196.38 144.93 195.532 144.009 194.726 143.154H194.817C194.896 143.154 193.387 138.573 193.259 138.293C191.732 135.06 186.678 129.624 182.351 129.986C179.225 130.243 177.364 132.989 177.946 135.663C178.528 138.337 181.503 140.513 184.115 141.663C186.727 142.814 192.944 143.099 194.471 143.149C195.29 144.047 196.15 145.017 197.077 146.113C198.689 148.042 200.489 150.24 202.265 152.744C202.743 153.413 203.222 154.147 203.701 154.848C202.622 153.818 201.113 152.415 200.95 152.295C197.92 150.059 190.69 147.363 187.012 149.467C184.369 151.001 184.121 154.213 185.994 156.339C187.866 158.465 191.684 159.199 194.587 159.134Z" fill="black"/>
<path d="M204.774 155.38C204.707 155.418 203.465 150.766 203.422 150.448C202.943 146.957 204.289 139.965 208.24 138.304C211.088 137.11 214.221 138.639 215.203 141.209C216.184 143.779 214.821 147.023 213.209 149.204C211.312 151.796 204.78 155.374 204.774 155.38Z" fill="black"/>
</g>
<g opacity="0.3">
<path d="M82.8756 99.931L96.936 85.8879L70.0476 63.8729L55.9871 77.9161L82.8756 99.931Z" stroke="black" stroke-width="0.998248" stroke-miterlimit="10"/>
<path d="M80.1681 95.1766C80.621 94.7276 81.2524 94.4593 81.9237 94.4306C82.5951 94.4018 83.2516 94.6149 83.7495 95.0232C83.8283 95.0889 83.895 95.1547 83.9677 95.2259L92.076 87.1704L91.8275 86.995C91.3324 86.5846 91.0368 86.0139 91.005 85.4073C90.9732 84.8006 91.2079 84.2072 91.6578 83.7563L91.773 83.6577L72.5688 67.8588L72.4719 67.9684C72.0191 68.4163 71.3883 68.6834 70.718 68.7112C70.0477 68.7389 69.3926 68.525 68.8965 68.1164C68.8177 68.0543 68.7448 67.9865 68.6783 67.9136L60.564 75.9747C60.6508 76.0284 60.7338 76.0869 60.8124 76.1501C61.3086 76.5587 61.6051 77.1287 61.6369 77.7349C61.6687 78.3411 61.4332 78.934 60.9821 79.3833C60.9099 79.4532 60.833 79.5191 60.7518 79.5805L79.9923 95.3958C80.0347 95.3191 80.1014 95.2479 80.1681 95.1766ZM73.1991 79.0983C73.7517 78.549 74.4722 78.1602 75.2692 77.9812C76.0663 77.8023 76.9041 77.8411 77.6768 78.0929C78.4494 78.3446 79.1221 78.798 79.6097 79.3955C80.0974 79.9931 80.378 80.7081 80.4162 81.4499C80.4544 82.1918 80.2484 82.9272 79.8242 83.5631C79.4 84.1991 78.7768 84.707 78.0334 85.0225C77.2899 85.3381 76.4597 85.4471 75.6477 85.3358C74.8357 85.2246 74.0785 84.898 73.4718 84.3975C72.6592 83.7271 72.1741 82.7925 72.123 81.7989C72.0719 80.8053 72.4589 79.834 73.1991 79.0983V79.0983Z" stroke="black" stroke-miterlimit="10"/>
</g>
<g opacity="0.3">
<path d="M185.464 29.7349L180.11 11.3855L144.977 19.7679L150.33 38.1172L185.464 29.7349Z" stroke="black" stroke-miterlimit="10"/>
<path d="M179.927 29.1536C179.758 28.5643 179.854 27.9381 180.195 27.413C180.536 26.8878 181.094 26.5067 181.745 26.3533C181.847 26.3316 181.95 26.3151 182.054 26.304L178.976 15.766L178.679 15.8591C178.357 15.935 178.021 15.9526 177.691 15.911C177.361 15.8694 177.044 15.7694 176.757 15.6167C176.47 15.464 176.219 15.2616 176.018 15.0211C175.818 14.7806 175.672 14.5067 175.588 14.2151C175.573 14.1701 175.561 14.1244 175.552 14.0781L150.439 20.0787C150.439 20.1226 150.47 20.1664 150.488 20.2157C150.572 20.5072 150.591 20.8107 150.545 21.109C150.499 21.4073 150.389 21.6945 150.22 21.9541C150.051 22.2136 149.827 22.4406 149.561 22.6219C149.295 22.8031 148.992 22.9352 148.67 23.0105C148.569 23.0367 148.465 23.055 148.361 23.0653L151.439 33.6034C151.535 33.5642 151.634 33.533 151.736 33.5102C152.059 33.4336 152.394 33.4154 152.725 33.4567C153.055 33.4979 153.373 33.5978 153.66 33.7506C153.947 33.9035 154.198 34.1061 154.398 34.347C154.599 34.5879 154.744 34.8622 154.827 35.1542C154.856 35.2456 154.876 35.3391 154.887 35.4337L180.018 29.4386C179.981 29.3455 179.951 29.2503 179.927 29.1536V29.1536ZM161.196 25.7122C160.986 24.9943 161.016 24.2363 161.282 23.5339C161.548 22.8315 162.039 22.2163 162.692 21.7661C163.345 21.3159 164.131 21.051 164.951 21.0049C165.77 20.9587 166.587 21.1334 167.296 21.5069C168.006 21.8803 168.577 22.4357 168.938 23.1028C169.299 23.7699 169.432 24.5188 169.322 25.2546C169.212 25.9905 168.863 26.6803 168.32 27.2367C167.776 27.7932 167.062 28.1914 166.268 28.3809C165.204 28.6349 164.072 28.4964 163.121 27.996C162.17 27.4956 161.478 26.6741 161.196 25.7122Z" stroke="black" stroke-miterlimit="10"/>
</g>
<g opacity="0.3">
<path d="M206.751 132.356L219.068 147.721L248.487 128.435L236.17 113.071L206.751 132.356Z" stroke="black" stroke-miterlimit="10"/>
<path d="M212.142 131.093C212.535 131.585 212.697 132.198 212.591 132.798C212.486 133.398 212.122 133.935 211.579 134.293C211.493 134.347 211.404 134.397 211.312 134.441L218.384 143.264C218.463 143.203 218.542 143.138 218.626 143.083C218.895 142.906 219.2 142.779 219.523 142.709C219.846 142.639 220.182 142.628 220.51 142.675C220.838 142.722 221.153 142.828 221.436 142.985C221.719 143.143 221.965 143.349 222.159 143.592C222.193 143.63 222.224 143.671 222.25 143.713L243.266 129.931L243.169 129.821C242.974 129.578 242.833 129.302 242.756 129.009C242.678 128.716 242.666 128.413 242.718 128.115C242.77 127.818 242.887 127.533 243.061 127.277C243.235 127.02 243.464 126.797 243.733 126.621C243.818 126.566 243.907 126.517 244 126.473L236.946 117.65C236.869 117.715 236.788 117.775 236.703 117.831C236.434 118.008 236.129 118.135 235.805 118.205C235.482 118.275 235.146 118.287 234.817 118.239C234.488 118.192 234.173 118.087 233.89 117.929C233.606 117.771 233.36 117.565 233.164 117.321C233.104 117.244 233.049 117.164 233.001 117.08L211.96 130.873C212.009 130.972 212.1 131.016 212.142 131.093ZM230.971 128.199C231.452 128.8 231.725 129.517 231.756 130.259C231.787 131.001 231.574 131.734 231.144 132.367C230.713 132.999 230.086 133.502 229.34 133.811C228.594 134.121 227.763 134.224 226.952 134.107C226.142 133.989 225.388 133.657 224.786 133.153C224.184 132.648 223.761 131.994 223.57 131.272C223.38 130.55 223.43 129.793 223.715 129.097C224 128.4 224.507 127.796 225.171 127.361C225.613 127.07 226.113 126.862 226.643 126.747C227.174 126.632 227.725 126.613 228.263 126.691C228.802 126.769 229.319 126.942 229.783 127.201C230.248 127.46 230.651 127.799 230.971 128.199V128.199Z" stroke="black" stroke-miterlimit="10"/>
</g>
<g opacity="0.3">
<path d="M239.917 56.9493L226.625 71.6347L254.743 92.4464L268.035 77.761L239.917 56.9493Z" stroke="black" stroke-miterlimit="10"/>
<path d="M242.642 61.3431C242.216 61.8123 241.602 62.1093 240.933 62.1689C240.265 62.2285 239.598 62.0458 239.079 61.661C238.998 61.6013 238.921 61.5372 238.849 61.4692L231.219 69.9029L231.474 70.0673C231.992 70.4527 232.321 71.0079 232.388 71.6117C232.455 72.2155 232.255 72.8187 231.831 73.2895L231.722 73.3936L251.817 88.2609C251.817 88.2225 251.872 88.1842 251.908 88.1458C252.334 87.6766 252.949 87.3796 253.617 87.32C254.285 87.2604 254.952 87.4431 255.471 87.828L255.702 88.0198L263.331 79.586C263.243 79.5363 263.158 79.4813 263.077 79.4216C262.557 79.0371 262.227 78.4817 262.16 77.8775C262.093 77.2732 262.294 76.6696 262.719 76.1994C262.786 76.1265 262.859 76.0587 262.937 75.9966L242.824 61.1075C242.769 61.1894 242.708 61.2681 242.642 61.3431V61.3431ZM250.52 77.0652C250.003 77.6413 249.308 78.0655 248.523 78.2845C247.739 78.5034 246.9 78.5071 246.114 78.2952C245.327 78.0832 244.628 77.6651 244.104 77.0937C243.58 76.5223 243.255 75.8233 243.17 75.085C243.085 74.3466 243.245 73.6022 243.628 72.9457C244.011 72.2892 244.601 71.7502 245.322 71.3967C246.044 71.0433 246.866 70.8913 247.683 70.9599C248.5 71.0286 249.277 71.3149 249.914 71.7825C250.771 72.4086 251.318 73.3166 251.435 74.3071C251.552 75.2976 251.23 76.2896 250.539 77.0652H250.52Z" stroke="black" stroke-miterlimit="10"/>
</g>
<g opacity="0.3">
<path d="M12.9488 197.401L25.2661 212.765L54.6847 193.48L42.3674 178.115L12.9488 197.401Z" stroke="black" stroke-miterlimit="10"/>
<path d="M18.3498 196.135C18.5451 196.378 18.6855 196.653 18.7629 196.946C18.8403 197.238 18.8531 197.541 18.8008 197.838C18.7484 198.135 18.6319 198.419 18.4578 198.675C18.2837 198.931 18.0555 199.153 17.7862 199.33C17.6953 199.39 17.6104 199.434 17.5195 199.483L24.5916 208.306C24.6669 208.238 24.748 208.176 24.834 208.119C25.3782 207.765 26.0559 207.62 26.7182 207.716C27.3806 207.813 27.9735 208.143 28.3669 208.635L28.4518 208.75L49.4739 194.973L49.377 194.858C49.1816 194.615 49.0412 194.339 48.9638 194.047C48.8864 193.755 48.8736 193.451 48.9259 193.155C48.9783 192.858 49.0948 192.573 49.2689 192.317C49.443 192.061 49.6713 191.839 49.9405 191.663C50.0254 191.608 50.1163 191.559 50.2072 191.51L43.1351 182.687L42.8927 182.873C42.3477 183.227 41.67 183.372 41.0072 183.277C40.3444 183.182 39.7501 182.853 39.3537 182.363C39.2931 182.281 39.2386 182.205 39.1901 182.122L18.1801 195.915C18.2164 195.981 18.2831 196.058 18.3498 196.135ZM37.1782 193.236C37.6602 193.837 37.9344 194.553 37.9661 195.295C37.9979 196.037 37.7856 196.77 37.3563 197.403C36.927 198.036 36.2998 198.539 35.5542 198.85C34.8085 199.16 33.9777 199.264 33.167 199.147C32.3562 199.031 31.6019 198.7 30.9993 198.196C30.3966 197.692 29.9728 197.037 29.7815 196.315C29.5901 195.593 29.6396 194.836 29.924 194.14C30.2083 193.444 30.7145 192.839 31.3787 192.403C32.2704 191.819 33.3817 191.579 34.4689 191.735C35.5561 191.891 36.5304 192.431 37.1782 193.236V193.236Z" stroke="black" stroke-miterlimit="10"/>
</g>
<path d="M54.0674 125.125L71.0354 132.194L85.0158 115.162C85.0158 115.162 84.8158 110.866 85.0158 110.23C85.6381 109.104 86.366 108.028 87.1913 107.013C87.4883 106.652 88.0822 107.013 88.1791 107.561C88.2761 108.109 87.8822 108.548 87.6883 108.997C87.4943 109.447 87.0823 110.427 87.0823 110.427L87.5731 111.77L92.815 108.011C92.815 108.011 94.027 106.581 94.4027 107.205C94.5208 107.392 94.5757 107.605 94.5606 107.82C94.5455 108.034 94.4611 108.24 94.3179 108.411L91.9303 111.321L93.5119 111.408L97.3661 108.46C97.3661 108.46 98.0569 108.192 98.1599 109.008C98.1899 109.257 98.1551 109.51 98.0583 109.745C97.9615 109.98 97.8054 110.191 97.6024 110.362L95.239 112.362L93.7058 113.211L98.2569 111.513C98.2569 111.513 98.8629 112.061 98.6508 112.318L93.7058 115.803L97.3418 115.255C97.3418 115.255 97.8388 115.88 97.5418 116.242L87.4519 118.834C87.4519 118.834 73.3745 142.754 73.1746 143.11C72.9746 143.466 70.9021 144.272 69.3204 143.828C67.7387 143.384 47.5044 135.416 47.5044 135.416" fill="#F49225"/>
<path d="M54.0674 125.125L71.0354 132.194L85.0158 115.162C85.0158 115.162 84.8158 110.866 85.0158 110.23C85.6381 109.104 86.366 108.028 87.1913 107.013C87.4883 106.652 88.0822 107.013 88.1791 107.561C88.2761 108.109 87.8822 108.548 87.6883 108.997C87.4943 109.447 87.0823 110.427 87.0823 110.427L87.5731 111.77L92.815 108.011C92.815 108.011 94.027 106.581 94.4027 107.205C94.5208 107.392 94.5757 107.605 94.5606 107.82C94.5455 108.034 94.4611 108.24 94.3179 108.411L91.9303 111.321L93.5119 111.408L97.3661 108.46C97.3661 108.46 98.0569 108.192 98.1599 109.008C98.1899 109.257 98.1551 109.51 98.0583 109.745C97.9615 109.98 97.8054 110.191 97.6024 110.362L95.239 112.362L93.7058 113.211L98.2569 111.513C98.2569 111.513 98.8629 112.061 98.6508 112.318L93.7058 115.803L97.3418 115.255C97.3418 115.255 97.8388 115.88 97.5418 116.242L87.4519 118.834C87.4519 118.834 73.3745 142.754 73.1746 143.11C72.9746 143.466 70.9021 144.272 69.3204 143.828C67.7387 143.384 47.5044 135.416 47.5044 135.416" stroke="#263238" stroke-miterlimit="10"/>
<path d="M80.0769 131.399L87.4762 118.828L97.5661 116.236C97.863 115.875 97.3661 115.25 97.3661 115.25L93.7301 115.798L98.6751 112.313C98.8751 112.044 98.2812 111.507 98.2812 111.507L93.7301 113.206L95.2633 112.356L97.6267 110.356C97.8297 110.185 97.9858 109.974 98.0826 109.739C98.1794 109.504 98.2142 109.252 98.1842 109.003C98.0812 108.197 97.3904 108.455 97.3904 108.455L93.5362 111.403L91.9545 111.315L94.3422 108.405C94.4854 108.234 94.5698 108.028 94.5849 107.814C94.5999 107.6 94.5451 107.386 94.427 107.2C94.0271 106.575 92.8393 108.005 92.8393 108.005L87.5732 111.792L87.0823 110.449C87.0823 110.449 87.4762 109.463 87.6883 109.019C87.9004 108.575 88.2943 108.12 88.1792 107.583C88.064 107.046 87.4883 106.69 87.1914 107.035C86.366 108.05 85.6382 109.126 85.0158 110.252C84.8159 110.877 85.0158 115.184 85.0158 115.184L74.6411 127.821L80.0769 131.399Z" fill="white" stroke="#263238" stroke-miterlimit="10"/>
<path d="M87.573 111.792C88.1059 112.195 88.5464 112.688 88.8699 113.244C89.185 113.946 87.7851 115.628 87.167 115.907" stroke="#263238" stroke-miterlimit="10"/>
<path d="M124.949 116.379C135.596 106.75 135.596 91.14 124.949 81.5119C114.302 71.8837 97.039 71.8837 86.3918 81.5119C75.7446 91.14 75.7446 106.75 86.3918 116.379C97.039 126.007 114.302 126.007 124.949 116.379Z" fill="white" stroke="#263238" stroke-miterlimit="10"/>
<path d="M115.251 117.75C126.734 112.963 131.751 100.665 126.457 90.2806C121.164 79.8967 107.564 75.3596 96.0807 80.1466C84.5978 84.9337 79.5804 97.2321 84.8741 107.616C90.1678 118 103.768 122.537 115.251 117.75Z" fill="white" stroke="#263238" stroke-miterlimit="10"/>
<path d="M110.371 117.787L109.595 114.499C106.881 114.927 104.685 114.534 103.008 113.321C101.332 112.108 100.097 110.062 99.3056 107.183L104.632 105.265C104.895 106.257 105.267 107.223 105.741 108.148C106.041 108.784 106.533 109.33 107.159 109.726C107.435 109.878 107.742 109.979 108.061 110.022C108.381 110.065 108.707 110.05 109.02 109.978C109.35 109.95 109.665 109.84 109.93 109.658C110.194 109.477 110.397 109.233 110.517 108.953C110.712 108.396 110.737 107.802 110.589 107.233C110.378 106.154 109.807 105.16 108.953 104.383C108.02 103.601 106.974 102.935 105.844 102.405L101.905 100.459C101.035 99.99 100.201 99.4682 99.4086 98.8976C98.6366 98.3376 97.973 97.6654 97.4452 96.9083C96.8396 96.0124 96.4187 95.0247 96.2029 93.993C95.6817 91.7717 95.9746 89.9067 97.0816 88.3979C98.3098 86.811 100.13 85.6784 102.208 85.2085L101.469 82.052L103.348 81.6904L104.093 84.8468C105.316 84.6333 106.58 84.703 107.765 85.0496C108.741 85.3539 109.612 85.8827 110.292 86.584C110.956 87.2774 111.498 88.0593 111.898 88.902C112.307 89.7332 112.647 90.5904 112.916 91.4667L107.462 93.2915C107.259 92.5166 106.998 91.755 106.681 91.0118C106.461 90.4568 106.09 89.961 105.602 89.5706C105.361 89.412 105.082 89.3082 104.788 89.2681C104.493 89.228 104.193 89.2528 103.911 89.3404C103.583 89.3984 103.276 89.5288 103.017 89.72C102.758 89.9112 102.555 90.1573 102.426 90.4364C102.166 90.9975 102.105 91.618 102.251 92.212C102.421 93.1585 102.942 94.0244 103.729 94.667C104.49 95.2384 105.301 95.7533 106.153 96.2069L110.008 98.1304C111.037 98.6765 112.017 99.2939 112.941 99.9771C113.876 100.665 114.693 101.476 115.365 102.383C116.09 103.396 116.594 104.525 116.849 105.709C117.142 106.891 117.128 108.118 116.807 109.293C116.504 110.412 115.877 111.437 114.989 112.263C114.022 113.134 112.827 113.771 111.516 114.116L112.298 117.447L110.371 117.787Z" fill="#263238"/>
<path d="M84.4221 232.631L91.6153 237.235C91.6153 237.235 95.9542 238.04 96.5118 238.446C97.0693 238.851 97.0632 240.556 97.0632 240.556C97.0632 240.556 92.6212 241.06 88.5065 241.158C84.3918 241.257 82.2768 241.158 79.0529 241.06C75.829 240.961 73.1626 241.158 72.496 240.457C71.8294 239.755 72.496 233.612 72.496 233.612C72.496 233.612 79.9922 229.93 84.4221 232.631Z" fill="white" stroke="#263238" stroke-miterlimit="10"/>
<path d="M88.5067 241.158C92.6214 241.06 97.0634 240.556 97.0634 240.556C97.0601 240.189 97.0277 239.822 96.9664 239.46C92.3669 239.799 83.8223 240.336 81.5013 239.827C78.8592 239.251 73.9142 239.016 72.2053 238.944C72.1669 239.455 72.2667 239.967 72.4962 240.435C73.1628 241.136 75.8292 240.934 79.0531 241.038C82.277 241.142 84.392 241.257 88.5067 241.158Z" fill="white" stroke="#263238" stroke-miterlimit="10"/>
<path d="M43.1958 235.426L46.9773 239.75L53.5342 243.471C53.9766 244.677 53.7584 244.978 53.6433 245.383C53.5281 245.789 51.5344 245.882 49.0862 245.783C46.6379 245.685 40.6385 246.386 38.8569 245.882C37.0752 245.378 31.4091 243.975 30.7425 243.69C30.0759 243.405 28.9609 243.087 29.2942 241.98C29.6275 240.873 30.6092 236.994 30.6092 236.994C32.4553 235.921 34.5377 235.225 36.7114 234.955C38.8851 234.684 41.0979 234.845 43.1958 235.426Z" fill="white" stroke="#263238" stroke-miterlimit="10"/>
<path d="M49.0862 245.783C51.5102 245.882 53.5342 245.783 53.6433 245.383C53.7831 245.046 53.8269 244.682 53.7705 244.326C50.7405 244.441 42.8625 244.72 40.6385 244.474C38.0933 244.2 30.7183 241.734 29.476 241.323C29.4093 241.58 29.3427 241.8 29.2942 241.964C28.9609 243.06 30.0759 243.372 30.7425 243.674C31.4091 243.975 37.0813 245.383 38.8569 245.866C40.6325 246.348 46.6622 245.685 49.0862 245.783Z" fill="white" stroke="#263238" stroke-miterlimit="10"/>
<path d="M38.3965 165.584L41.5477 200.075L31.7668 231.93L30.373 236.977C30.373 236.977 31.4578 237.821 34.409 237.679C37.3602 237.536 43.2505 236.276 43.2505 236.276C43.684 235.544 43.8933 234.721 43.8565 233.892C43.699 232.768 43.0809 232.347 43.0809 231.93C43.0809 231.514 56.1341 200.075 56.1341 200.075L57.3461 181.832L66.1937 202.179L71.9325 233.612C71.9325 233.612 72.2476 235.158 72.7082 235.015C73.1688 234.873 80.9619 232.352 80.9619 232.352L83.9071 232.637C83.9071 232.637 84.2161 228.565 82.9739 227.705C82.2806 227.26 81.7001 226.686 81.271 226.023L80.0287 196.135L67.9087 165.403L66.8179 161.616L38.9055 163.03L38.3965 165.584Z" fill="#263238" stroke="#263238" stroke-miterlimit="10"/>
<path d="M38.3965 165.584L38.6449 167.463L67.9269 165.414L66.6664 162.942L38.3965 165.584Z" fill="#F49225" stroke="#263238" stroke-miterlimit="10"/>
<path d="M35.1483 122.56C35.1483 122.56 33.3303 128.013 33.5484 130.517C33.7666 133.022 37.1844 152.793 37.1844 152.793L38.4752 160.394C38.4752 160.394 37.4814 162.718 37.5844 163.255C37.6874 163.792 37.4814 165.222 38.3722 165.584C39.263 165.945 46.8077 165.496 54.5403 165.315C62.2728 165.134 65.2241 164.866 66.2118 164.51C67.1996 164.153 68.3874 162.898 68.1874 161.918C67.9349 160.972 67.6047 160.045 67.1996 159.145C67.1996 159.145 66.8057 135.257 66.2118 131.591C65.618 127.925 64.9271 122.916 62.8485 121.037C60.77 119.157 57.2915 118.368 57.2915 118.368L54.5403 123.004C54.5403 123.004 45.0443 119.519 41.584 119.168C38.1237 118.817 35.1483 122.56 35.1483 122.56Z" fill="#F49225" stroke="#263238" stroke-miterlimit="10"/>
<path d="M40.9355 139.981C39.6508 140.337 38.5903 140.611 38.0752 140.694" stroke="#263238" stroke-miterlimit="10"/>
<path d="M49.6921 137.329C49.6921 137.329 46.0077 138.496 42.7231 139.461" stroke="#263238" stroke-miterlimit="10"/>
<path d="M40.4812 146.513C39.9732 146.848 39.4384 147.149 38.8813 147.412" stroke="#263238" stroke-miterlimit="10"/>
<path d="M50.6739 138.354C50.6739 138.354 45.9956 142.584 42.1899 145.357" stroke="#263238" stroke-miterlimit="10"/>
<path d="M55.9036 127.684C55.9036 127.684 47.8922 123.848 44.0381 122.752C40.1839 121.656 38.7962 121.503 37.9054 121.656C37.0145 121.809 33.5482 125.059 33.2513 124.166C32.9543 123.273 34.3421 117.546 34.736 116.291C35.1299 115.036 41.1656 113.518 42.8503 113.074C44.535 112.63 52.9402 115.579 54.8188 116.116C56.6974 116.653 58.4548 118.62 58.4548 119.952C58.4548 121.283 55.9036 127.684 55.9036 127.684Z" fill="#F49225" stroke="#263238" stroke-miterlimit="10"/>
<path d="M35.4873 118.193C35.4873 118.193 37.1053 117.025 38.0749 117.612C39.0445 118.198 55.3399 126.495 55.3399 126.495L56.164 118.779" stroke="#263238" stroke-miterlimit="10"/>
<path d="M58.479 94.7108C58.479 94.7108 59.885 98.5468 59.885 99.5004C59.885 100.454 59.388 102.043 59.7213 102.64C60.0546 103.238 62.0363 106.005 61.709 106.476C61.3818 106.948 60.1334 108.57 60.1334 108.57C60.1334 108.57 59.8062 114.176 59.4729 114.779C59.1396 115.381 56.9943 115.327 56.0005 115.327H53.934C53.934 115.327 55.752 126.396 55.34 126.544C54.9279 126.692 43.0988 115.776 43.0988 115.776L43.5108 107.775C43.5108 107.775 39.39 102.191 40.0385 99.736C40.6869 97.281 47.1529 95.3246 50.6253 94.5026C54.0977 93.6806 58.479 94.7108 58.479 94.7108Z" fill="white" stroke="#263238" stroke-miterlimit="10"/>
<path d="M57.5701 103.134C57.6913 103.682 57.5095 104.23 57.1762 104.268C56.8429 104.306 56.4733 103.906 56.3521 103.342C56.2309 102.777 56.4127 102.246 56.752 102.207C57.0914 102.169 57.4429 102.564 57.5701 103.134Z" fill="#263238"/>
<path d="M55.3398 101.144C55.6967 100.766 56.1706 100.492 56.7007 100.358C57.2308 100.224 57.7931 100.237 58.3153 100.394" stroke="#263238" stroke-miterlimit="10"/>
<path d="M54.0977 107.276C54.94 108.3 56.1814 108.996 57.57 109.222" stroke="#263238" stroke-miterlimit="10"/>
<path d="M45.0017 104.81C45.0017 104.81 47.153 105.106 47.153 104.586C47.153 104.065 46.9045 102.114 46.9045 102.114C46.9045 102.114 49.7952 100.021 49.7164 99.051C49.6376 98.081 48.3105 97.2536 48.3892 96.9576C48.468 96.6617 52.3585 95.6096 55.5037 95.6096C58.6488 95.6096 59.3094 96.2069 60.3032 94.8588C61.2971 93.5107 62.0364 91.7188 60.1335 89.8501C58.2307 87.9814 57.3217 88.8034 56.3339 88.5787C55.3461 88.354 52.4434 85.7346 50.4618 86.3374C49.9003 86.4941 49.396 86.7851 49.0024 87.1796C48.6088 87.5742 48.3404 88.0576 48.2256 88.5787C48.2256 88.5787 44.5048 86.3374 42.9352 87.532C42.04 88.1641 41.4268 89.0669 41.2081 90.0748C40.4789 90.1235 39.776 90.3418 39.1676 90.7086C38.5592 91.0754 38.066 91.5782 37.7358 92.1681C36.6571 94.1902 36.7419 95.3082 36.7419 95.3082C36.7419 95.3082 34.6633 96.448 34.7482 98.092C34.7335 98.9287 34.9612 99.7543 35.4087 100.487C35.4087 100.487 33.6695 101.161 35.4087 103.55C37.1479 105.939 37.8327 106.246 37.8327 106.246C37.8327 106.246 35.8511 106.471 37.8327 107.967C39.8143 109.463 43.4564 110.06 44.2866 110.433C45.1168 110.806 45.2805 108.34 45.2805 106.844C45.3207 106.156 45.2263 105.468 45.0017 104.81Z" fill="#263238" stroke="#263238" stroke-miterlimit="10"/>
<path d="M46.3227 105.556C46.3227 105.556 44.1714 103.024 43.026 103.835C41.8807 104.646 42.6139 108.246 43.8562 109.37C45.0985 110.493 46.9165 108.548 46.9165 108.548" fill="white"/>
<path d="M46.3227 105.556C46.3227 105.556 44.1714 103.024 43.026 103.835C41.8807 104.646 42.6139 108.246 43.8562 109.37C45.0985 110.493 46.9165 108.548 46.9165 108.548" stroke="#263238" stroke-miterlimit="10"/>
<path d="M53.9341 115.277L50.3647 115.222L54.5219 119.069L53.9341 115.277Z" fill="#263238" stroke="#263238" stroke-miterlimit="10"/>
<path d="M45.22 124.703L62.188 131.772L76.1624 114.74C76.1624 114.74 75.9685 110.449 76.1624 109.808C76.3563 109.167 78.0471 106.948 78.344 106.591C78.6409 106.235 79.2288 106.591 79.3318 107.139C79.4348 107.687 79.0348 108.12 78.8349 108.57C78.6349 109.019 78.2289 110 78.2289 110L78.7258 111.343L83.9677 107.583C83.9677 107.583 85.1797 106.153 85.5493 106.778C85.6682 106.964 85.7241 107.177 85.7101 107.391C85.6961 107.606 85.6128 107.812 85.4706 107.983L83.0466 110.893L84.6282 110.986L88.4884 108.033C88.4884 108.033 89.1793 107.764 89.2762 108.581C89.3084 108.83 89.2753 109.084 89.1795 109.32C89.0837 109.556 88.928 109.768 88.7248 109.94L86.3553 111.934L84.8403 112.773L89.3914 111.074C89.3914 111.074 89.9974 111.622 89.7853 111.88L84.8403 115.365L88.4763 114.817C88.4763 114.817 88.9672 115.447 88.6702 115.803L78.5803 118.395C78.5803 118.395 64.503 142.316 64.309 142.672C64.1151 143.028 62.0305 143.834 60.4488 143.39C58.8672 142.946 38.6328 134.983 38.6328 134.983" fill="#F49225"/>
<path d="M45.22 124.703L62.188 131.772L76.1624 114.74C76.1624 114.74 75.9685 110.449 76.1624 109.808C76.3563 109.167 78.0471 106.948 78.344 106.591C78.6409 106.235 79.2288 106.591 79.3318 107.139C79.4348 107.687 79.0348 108.12 78.8349 108.57C78.6349 109.019 78.2289 110 78.2289 110L78.7258 111.343L83.9677 107.583C83.9677 107.583 85.1797 106.153 85.5493 106.778C85.6682 106.964 85.7241 107.177 85.7101 107.391C85.6961 107.606 85.6128 107.812 85.4705 107.983L83.0465 110.893L84.6282 110.986L88.4884 108.033C88.4884 108.033 89.1793 107.764 89.2762 108.581C89.3084 108.83 89.2753 109.084 89.1795 109.32C89.0837 109.556 88.928 109.768 88.7248 109.94L86.3553 111.934L84.8403 112.773L89.3914 111.074C89.3914 111.074 89.9974 111.622 89.7853 111.88L84.8403 115.365L88.4763 114.817C88.4763 114.817 88.9672 115.447 88.6702 115.803L78.5803 118.395C78.5803 118.395 64.503 142.316 64.309 142.672C64.1151 143.028 62.0305 143.834 60.4488 143.39C58.8672 142.946 38.6328 134.983 38.6328 134.983" stroke="#263238" stroke-miterlimit="10"/>
<path d="M71.2353 130.972L78.6285 118.401L88.7184 115.809C89.0153 115.453 88.5245 114.822 88.5245 114.822L84.8885 115.37L89.8334 111.885C90.0334 111.617 89.4395 111.08 89.4395 111.08L84.8885 112.778L86.4156 111.929L88.785 109.934C88.9882 109.763 89.144 109.55 89.2398 109.314C89.3355 109.078 89.3687 108.825 89.3365 108.575C89.2395 107.77 88.5487 108.027 88.5487 108.027L84.6885 110.981L83.1068 110.888L85.5308 107.978C85.6731 107.806 85.7564 107.6 85.7704 107.386C85.7844 107.171 85.7285 106.958 85.6096 106.772C85.2157 106.148 84.0279 107.578 84.0279 107.578L78.786 111.337L78.2891 109.995C78.2891 109.995 78.683 109.008 78.8951 108.564C79.1072 108.12 79.5011 107.671 79.392 107.134C79.283 106.597 78.6951 106.235 78.3982 106.586C78.1013 106.937 76.4226 109.178 76.2227 109.803C76.0227 110.427 76.2227 114.735 76.2227 114.735L65.854 127.372L71.2353 130.972Z" fill="white" stroke="#263238" stroke-miterlimit="10"/>
<path d="M213.918 58.9045V224.981C213.918 227.165 212.962 229.259 211.258 230.805C209.554 232.352 207.242 233.226 204.828 233.234H125.442C123.028 233.226 120.716 232.352 119.012 230.805C117.309 229.259 116.352 227.165 116.352 224.981V58.9045C116.35 56.721 117.306 54.6259 119.01 53.0789C120.714 51.5318 123.027 50.6589 125.442 50.6516H159.499V50.7503C160.348 53.4903 162.305 55.3096 164.468 55.3096H165.717C167.88 55.3096 169.838 53.5122 170.686 50.7503V50.6516H204.828C207.242 50.6603 209.554 51.5337 211.258 53.0804C212.962 54.6272 213.918 56.7214 213.918 58.9045Z" fill="white" stroke="#263238" stroke-linecap="round" stroke-linejoin="round"/>
<path d="M213.918 63.6064V58.9045C213.918 56.7214 212.962 54.6272 211.258 53.0804C209.554 51.5337 207.242 50.6603 204.828 50.6516H170.759V50.7503C169.91 53.4903 167.953 55.3096 165.79 55.3096H164.541C162.378 55.3096 160.42 53.5122 159.572 50.7503V50.6516H125.442C123.027 50.6589 120.714 51.5318 119.01 53.0789C117.306 54.6259 116.35 56.721 116.352 58.9045V63.6064H213.918Z" fill="#263238" stroke="#263238" stroke-miterlimit="10"/>
<path d="M116.352 220.543V224.981C116.352 227.165 117.309 229.259 119.012 230.805C120.716 232.352 123.028 233.226 125.442 233.234H204.828C207.242 233.226 209.554 232.352 211.258 230.805C212.962 229.259 213.918 227.165 213.918 224.981V220.543H116.352Z" fill="#263238" stroke="#263238" stroke-miterlimit="10"/>
<path d="M220.148 98.5742V81.9863H218.487V60.7513C218.481 57.2824 216.953 53.9576 214.239 51.5063C211.525 49.055 207.846 47.6774 204.01 47.676H126.26C122.421 47.6774 118.739 49.0572 116.025 51.5121C113.31 53.9669 111.784 57.296 111.783 60.7677V229.491C111.784 232.963 113.31 236.292 116.025 238.747C118.739 241.202 122.421 242.582 126.26 242.583H204.01C207.849 242.582 211.53 241.202 214.245 238.747C216.96 236.292 218.486 232.963 218.487 229.491V112.707H220.148V102.909H218.487V98.5742H220.148ZM213.918 220.143C213.918 223.614 212.394 226.943 209.68 229.398C206.966 231.853 203.285 233.233 199.447 233.234H130.805C126.97 233.228 123.293 231.847 120.584 229.392C117.874 226.938 116.352 223.611 116.352 220.143V63.7379C116.354 60.2676 117.879 56.9399 120.592 54.4861C123.306 52.0323 126.986 50.6531 130.823 50.6516H159.529V50.7503C160.378 53.4903 162.335 55.3096 164.499 55.3096H165.747C167.91 55.3096 169.868 53.5122 170.716 50.7503V50.6516H199.422C201.325 50.6495 203.209 50.9863 204.967 51.6429C206.725 52.2995 208.323 53.263 209.669 54.4784C211.015 55.6937 212.083 57.137 212.812 58.7258C213.542 60.3146 213.917 62.0177 213.918 63.7379V220.143Z" fill="#F49225" stroke="#263238" stroke-linecap="round" stroke-linejoin="round"/>
<path d="M202.852 49.4625H127.417C123.721 49.4625 120.176 50.7904 117.562 53.1541C114.948 55.5178 113.479 58.7237 113.479 62.0665V228.11C113.479 231.453 114.948 234.659 117.562 237.023C120.176 239.387 123.721 240.714 127.417 240.714H202.852C206.549 240.714 210.094 239.387 212.708 237.023C215.322 234.659 216.79 231.453 216.79 228.11V62.0665C216.79 58.7237 215.322 55.5178 212.708 53.1541C210.094 50.7904 206.549 49.4625 202.852 49.4625ZM213.918 220.608C213.918 223.951 212.449 227.157 209.836 229.521C207.222 231.884 203.677 233.212 199.98 233.212H130.29C126.593 233.212 123.048 231.884 120.434 229.521C117.82 227.157 116.352 223.951 116.352 220.608V63.2775C116.352 59.9348 117.82 56.7289 120.434 54.3652C123.048 52.0015 126.593 50.6735 130.29 50.6735H159.511V50.7722C160.36 53.5122 162.317 55.3315 164.48 55.3315H165.729C167.892 55.3315 169.85 53.5341 170.698 50.7722V50.6735H199.98C203.677 50.6735 207.222 52.0015 209.836 54.3652C212.449 56.7289 213.918 59.9348 213.918 63.2775V220.608Z" fill="#263238" stroke="#263238" stroke-linecap="round" stroke-linejoin="round"/>
<path d="M166.195 51.2818C166.195 51.0393 166.116 50.8022 165.967 50.6004C165.818 50.3987 165.606 50.2413 165.359 50.1483C165.111 50.0552 164.838 50.0306 164.575 50.0775C164.312 50.1244 164.07 50.2408 163.88 50.4119C163.69 50.583 163.56 50.8013 163.507 51.039C163.454 51.2768 163.48 51.5234 163.582 51.7478C163.684 51.9722 163.857 52.1643 164.079 52.2998C164.302 52.4354 164.564 52.5083 164.832 52.5093C165.011 52.5101 165.188 52.4789 165.353 52.4175C165.519 52.3561 165.669 52.2658 165.796 52.1518C165.922 52.0377 166.023 51.9021 166.091 51.7529C166.16 51.6036 166.195 51.4435 166.195 51.2818Z" fill="white"/>
<path d="M125.006 55.9892C125.006 57.2331 123.461 57.677 123.454 58.6305V58.6908H124.957V59.1128H122.958V58.7566C122.958 57.4249 124.497 57.1674 124.497 56.0166C124.497 55.5946 124.345 55.3699 123.963 55.3699C123.582 55.3699 123.43 55.611 123.43 55.9782V56.3399H122.958V56.0056C122.958 55.3754 123.273 54.9589 123.976 54.9589C124.679 54.9589 125.006 55.348 125.006 55.9892Z" fill="white"/>
<path d="M127.502 55.9837V56.0878C127.524 56.2643 127.482 56.4424 127.383 56.5955C127.283 56.7486 127.132 56.8685 126.951 56.9372C127.133 57.0062 127.285 57.127 127.385 57.2812C127.484 57.4354 127.526 57.6148 127.502 57.7921V58.088C127.502 58.7182 127.175 59.1292 126.472 59.1292C125.769 59.1292 125.442 58.7401 125.442 58.088V57.8031H125.915V58.1154C125.915 58.4881 126.084 58.7127 126.448 58.7127C126.811 58.7127 126.981 58.4935 126.981 58.0771V57.7592C126.981 57.3537 126.793 57.1564 126.411 57.1454H126.139V56.7344H126.436C126.775 56.7344 126.981 56.5262 126.981 56.1864V56.0001C126.981 55.5782 126.818 55.359 126.448 55.359C126.078 55.359 125.915 55.5891 125.915 55.9618V56.17H125.442V55.9837C125.442 55.3535 125.763 54.948 126.46 54.948C127.157 54.948 127.502 55.348 127.502 55.9837Z" fill="white"/>
<path d="M128.472 56.2961V56.8441H127.981V56.2961H128.472ZM128.472 58.5374V59.1128H127.981V58.5374H128.472Z" fill="white"/>
<path d="M129.52 56.6687C129.585 56.5597 129.682 56.4695 129.801 56.4085C129.92 56.3474 130.056 56.3179 130.193 56.3234C130.799 56.3234 131.041 56.7125 131.041 57.3043V58.088C131.041 58.7182 130.708 59.1292 130.011 59.1292C129.314 59.1292 128.987 58.7182 128.987 58.088V57.8085H129.466V58.1154C129.466 58.488 129.635 58.7127 129.999 58.7127C130.362 58.7127 130.532 58.488 130.532 58.1154V57.3153C130.532 56.9427 130.362 56.7235 129.999 56.7235C129.933 56.7205 129.867 56.7296 129.805 56.7503C129.743 56.7709 129.686 56.8026 129.638 56.8436C129.59 56.8845 129.552 56.9338 129.525 56.9885C129.499 57.0432 129.484 57.1021 129.484 57.1619V57.255H129.011L129.132 54.9644H130.95V55.3754H129.605L129.52 56.6687Z" fill="white"/>
<path d="M133.581 55.9782V56.0549H133.102V55.9453C133.102 55.5782 132.932 55.359 132.562 55.359C132.193 55.359 132.005 55.5837 132.005 56.0221V56.9482C132.06 56.8128 132.161 56.6968 132.294 56.617C132.427 56.5372 132.585 56.4977 132.744 56.5043C133.35 56.5043 133.593 56.8879 133.593 57.4852V58.088C133.593 58.7182 133.247 59.1292 132.55 59.1292C131.853 59.1292 131.502 58.7401 131.502 58.088V56.0056C131.502 55.3535 131.823 54.948 132.55 54.948C133.278 54.948 133.581 55.348 133.581 55.9782ZM132.005 57.5181V58.1373C132.005 58.51 132.175 58.7346 132.55 58.7346C132.926 58.7346 133.09 58.51 133.09 58.1373V57.54C133.09 57.1728 132.914 56.9482 132.55 56.9482C132.187 56.9482 132.005 57.1509 132.005 57.54V57.5181Z" fill="white"/>
<path d="M183.363 56.159H182.079V59.0689H183.363V56.159Z" fill="white"/>
<path d="M185.091 55.5727H183.8V59.0689H185.091V55.5727Z" fill="white"/>
<path d="M186.805 55.1617H185.515V59.0689H186.805V55.1617Z" fill="white"/>
<path d="M188.514 54.4383H187.229V59.0689H188.514V54.4383Z" fill="white"/>
<path d="M204.458 58.9922H196.732V54.7178H204.458V58.9922ZM197.186 58.6031H204.052V55.1069H197.162L197.186 58.6031Z" fill="white"/>
<path d="M201.883 55.5288H197.804V58.1757H201.883V55.5288Z" fill="white"/>
<path d="M205.155 56.3508H204.186V57.3591H205.155V56.3508Z" fill="white"/>
<path d="M193.92 58.088C193.869 58.0888 193.818 58.0755 193.775 58.0496C192.199 57.2057 191.163 57.9893 191.12 58.0496C191.066 58.0975 190.993 58.1243 190.917 58.1243C190.842 58.1243 190.769 58.0975 190.714 58.0496C190.687 58.0257 190.666 57.9971 190.652 57.9656C190.637 57.9341 190.629 57.9002 190.629 57.8661C190.629 57.8319 190.637 57.798 190.652 57.7665C190.666 57.735 190.687 57.7064 190.714 57.6825C190.769 57.6386 192.102 56.5865 194.047 57.6496C194.08 57.6676 194.108 57.6912 194.131 57.7191C194.154 57.747 194.17 57.7787 194.179 57.8123C194.188 57.8458 194.189 57.8807 194.184 57.9149C194.178 57.949 194.164 57.9818 194.144 58.0113C194.115 58.0377 194.08 58.0583 194.041 58.0715C194.003 58.0847 193.961 58.0903 193.92 58.088Z" fill="white"/>
<path d="M194.477 57.1838C194.426 57.1846 194.375 57.1713 194.332 57.1454C192.059 55.9234 190.526 57.1071 190.514 57.1454C190.488 57.1698 190.456 57.1891 190.421 57.2023C190.386 57.2155 190.349 57.2223 190.311 57.2223C190.273 57.2223 190.236 57.2155 190.201 57.2023C190.166 57.1891 190.134 57.1698 190.108 57.1454C190.081 57.1215 190.06 57.0929 190.045 57.0614C190.03 57.0298 190.023 56.996 190.023 56.9618C190.023 56.9277 190.03 56.8938 190.045 56.8623C190.06 56.8308 190.081 56.8022 190.108 56.7783C190.108 56.7783 191.968 55.3315 194.605 56.7454C194.637 56.7634 194.666 56.787 194.688 56.8149C194.711 56.8428 194.727 56.8745 194.736 56.9081C194.745 56.9416 194.746 56.9765 194.741 57.0107C194.735 57.0448 194.721 57.0776 194.701 57.1071C194.672 57.1335 194.637 57.1541 194.599 57.1673C194.56 57.1805 194.519 57.1861 194.477 57.1838Z" fill="white"/>
<path d="M195.005 56.17C194.954 56.1675 194.904 56.1544 194.859 56.1316C191.981 54.5808 190.066 56.0385 190.011 56.1042C189.956 56.1525 189.882 56.1794 189.805 56.1794C189.728 56.1794 189.655 56.1525 189.599 56.1042C189.55 56.0516 189.526 55.9837 189.532 55.9151C189.537 55.8464 189.572 55.7825 189.63 55.7371C189.63 55.7371 191.926 53.9616 195.181 55.7371C195.213 55.7545 195.241 55.7777 195.264 55.8051C195.286 55.8325 195.302 55.8637 195.311 55.8968C195.32 55.93 195.322 55.9644 195.316 55.9981C195.31 56.0319 195.297 56.0642 195.278 56.0933C195.243 56.1258 195.2 56.1498 195.152 56.1632C195.104 56.1767 195.054 56.179 195.005 56.17Z" fill="white"/>
<path d="M193.029 58.499C193.029 58.6291 192.986 58.7562 192.907 58.8643C192.827 58.9725 192.713 59.0568 192.58 59.1065C192.447 59.1563 192.301 59.1693 192.16 59.144C192.019 59.1186 191.889 59.056 191.788 58.964C191.686 58.872 191.617 58.7548 191.589 58.6273C191.561 58.4997 191.575 58.3675 191.63 58.2473C191.685 58.1272 191.778 58.0245 191.898 57.9522C192.017 57.88 192.158 57.8414 192.302 57.8414C192.398 57.8407 192.493 57.8572 192.581 57.89C192.67 57.9227 192.75 57.9712 192.818 58.0324C192.886 58.0936 192.939 58.1664 192.975 58.2465C193.012 58.3266 193.03 58.4124 193.029 58.499Z" fill="white"/>
<path d="M202.289 137.416H128.314C125.915 137.416 123.969 139.176 123.969 141.346V179.865C123.969 182.035 125.915 183.794 128.314 183.794H202.289C204.688 183.794 206.634 182.035 206.634 179.865V141.346C206.634 139.176 204.688 137.416 202.289 137.416Z" fill="#F49225" stroke="#263238" stroke-linecap="round" stroke-linejoin="round"/>
<path d="M139.059 173.974H130.308V177.245H139.059V173.974Z" fill="#263238"/>
<path d="M150.675 173.974H141.925V177.245H150.675V173.974Z" fill="#263238"/>
<path d="M162.287 173.974H153.536V177.245H162.287V173.974Z" fill="#263238"/>
<path d="M173.903 173.974H165.153V177.245H173.903V173.974Z" fill="#263238"/>
<path d="M185.521 173.974H176.77V177.245H185.521V173.974Z" fill="#263238"/>
<path d="M197.138 173.974H188.387V177.245H197.138V173.974Z" fill="#263238"/>
<path d="M147.306 153.511H132.314C131.206 153.511 130.308 154.323 130.308 155.325V164.521C130.308 165.522 131.206 166.334 132.314 166.334H147.306C148.414 166.334 149.312 165.522 149.312 164.521V155.325C149.312 154.323 148.414 153.511 147.306 153.511Z" fill="white" stroke="#263238" stroke-linecap="round" stroke-linejoin="round"/>
<path d="M171.94 142.875H130.308V144.782H171.94V142.875Z" fill="#263238"/>
<path d="M183.39 105.38C185.978 95.3186 179.055 85.2659 167.929 82.9265C156.803 80.587 145.687 86.8467 143.1 96.9078C140.513 106.969 147.435 117.022 158.561 119.361C169.687 121.7 180.803 115.441 183.39 105.38Z" fill="#263238"/>
<path d="M163.475 118.582V115.54C160.99 115.453 159.132 114.722 157.899 113.348C156.667 111.975 156.005 109.965 155.912 107.32L161.014 106.537C161.038 107.459 161.166 108.378 161.396 109.277C161.528 109.891 161.847 110.461 162.317 110.921C162.529 111.104 162.779 111.247 163.053 111.341C163.326 111.435 163.618 111.478 163.911 111.469C164.21 111.499 164.512 111.453 164.783 111.337C165.055 111.221 165.286 111.039 165.45 110.811C165.735 110.353 165.88 109.835 165.868 109.31C165.907 108.319 165.609 107.342 165.014 106.509C164.351 105.661 163.566 104.896 162.681 104.235L159.602 101.846C158.932 101.284 158.305 100.681 157.724 100.043C157.156 99.4177 156.709 98.7098 156.403 97.9495C156.055 97.0557 155.889 96.1128 155.912 95.1657C155.912 93.1162 156.556 91.5178 157.845 90.3707C159.263 89.178 161.109 88.4873 163.044 88.4253V85.488H164.777V88.4034C165.904 88.4209 167.007 88.6961 167.983 89.2034C168.775 89.6359 169.43 90.2455 169.886 90.9735C170.326 91.7011 170.643 92.4843 170.825 93.297C171.014 94.1004 171.136 94.9156 171.189 95.7356L166.008 96.448C165.995 95.7301 165.924 95.014 165.796 94.3053C165.718 93.777 165.493 93.2753 165.141 92.8476C164.961 92.6667 164.735 92.5276 164.483 92.4418C164.231 92.3559 163.96 92.326 163.693 92.3544C163.39 92.3495 163.09 92.4131 162.822 92.5394C162.553 92.6657 162.323 92.8508 162.153 93.0778C161.809 93.5305 161.627 94.0682 161.632 94.6177C161.59 95.4666 161.863 96.3039 162.408 96.996C162.962 97.6264 163.57 98.2164 164.226 98.7606L167.256 101.117C168.055 101.773 168.794 102.486 169.468 103.249C170.145 104.016 170.694 104.869 171.098 105.78C171.521 106.801 171.726 107.885 171.704 108.975C171.719 110.068 171.453 111.148 170.928 112.132C170.423 113.069 169.649 113.866 168.686 114.439C167.649 115.048 166.459 115.41 165.226 115.491V118.565L163.475 118.582Z" fill="white" stroke="#263238" stroke-linecap="round" stroke-linejoin="round"/>
<path d="M179.467 96.3548C182.703 96.3548 185.327 93.9823 185.327 91.0557C185.327 88.129 182.703 85.7565 179.467 85.7565C176.231 85.7565 173.607 88.129 173.607 91.0557C173.607 93.9823 176.231 96.3548 179.467 96.3548Z" fill="#F49225" stroke="#263238" stroke-linecap="round" stroke-linejoin="round"/>
<path d="M179.448 93.3628C179.33 93.3583 179.215 93.3304 179.11 93.2812C179.006 93.232 178.914 93.1625 178.842 93.0778L175.952 89.6966C175.821 89.5433 175.763 89.3492 175.79 89.157C175.817 88.9648 175.928 88.7903 176.097 88.6719C176.267 88.5534 176.481 88.5007 176.694 88.5254C176.906 88.5501 177.099 88.6501 177.23 88.8034L179.515 91.4831L185.508 85.2359C185.653 85.1083 185.846 85.0346 186.048 85.0294C186.25 85.0243 186.447 85.088 186.6 85.2081C186.752 85.3282 186.85 85.4957 186.872 85.6775C186.894 85.8593 186.84 86.042 186.72 86.1894L180.085 93.1107C180.006 93.1929 179.908 93.2583 179.798 93.3019C179.688 93.3455 179.569 93.3663 179.448 93.3628Z" fill="#263238"/>
</svg>
